<svg width="440" height="87" viewBox="0 0 440 87" fill="none" xmlns="http://www.w3.org/2000/svg">
<g clip-path="url(#clip0_1_26)">
<path d="M53.8812 78.4168C54.8339 81.1429 56.3479 84.5959 58.9742 84.5959V85.7175H44.8127V84.5959C47.2793 84.5959 49.0302 82.6695 48.232 79.7046L45.5285 71.1214H21.4229L18.879 78.8218C17.5246 82.8304 18.9562 84.5959 21.9018 84.5959V85.7175H11V84.5959C13.5439 84.5959 15.1352 80.904 16.093 78.178L32.2423 32.3699C31.8458 31.1653 31.0476 30.5266 30.7283 30.5266V29.5608H34.2301C36.9337 29.5608 37.1757 30.9264 37.7319 32.3699L53.8812 78.4168ZM44.653 68.8679L34.3125 37.9051C33.9932 36.8614 33.0405 36.9445 32.7213 37.8272L22.2983 68.8731H44.653V68.8679Z" fill="url(#paint0_linear_1_26)"/>
<path d="M125.111 29.5608V30.6876C122.804 30.6876 122.088 32.8528 120.497 36.4616L105.064 85.7175H102.916C102.916 85.7175 99.7337 82.1087 97.0302 73.9253L86.2107 42.6406L74.9124 85.7175H71.5703C71.5703 85.7175 68.465 82.1087 65.6842 73.9253L52.9491 36.1397C51.7544 32.7697 50.8017 30.6876 48.5719 30.6876V29.5608H61.4615V30.6876C58.9948 30.6876 58.3562 33.2526 59.7106 37.8272L74.1914 79.2217L86.9986 29.5608H88.111L105.218 79.2165L117.31 37.822C118.741 33.2474 118.185 30.6824 115.641 30.6824V29.5608H125.106H125.111Z" fill="url(#paint1_linear_1_26)"/>
<path d="M157.158 78.4168C158.11 81.1429 159.624 84.5959 162.251 84.5959V85.7175H148.089V84.5959C150.556 84.5959 152.307 82.6695 151.508 79.7046L148.805 71.1214H124.699L122.155 78.8218C120.801 82.8304 122.233 84.5959 125.178 84.5959V85.7175H114.276V84.5959C116.82 84.5959 118.412 80.904 119.369 78.178L135.514 32.3699C135.117 31.1653 134.319 30.5266 134 30.5266V29.5608H137.501C140.205 29.5608 140.447 30.9264 141.003 32.3699L157.152 78.4168H157.158ZM147.929 68.8679L137.589 37.9051C137.27 36.8614 136.317 36.9445 135.998 37.8272L125.575 68.8731H147.929V68.8679Z" fill="url(#paint2_linear_1_26)"/>
<path d="M215.709 84.6738V85.7953H213.881C200.435 85.7953 195.023 80.821 187.226 63.0938C184.044 65.0202 178.554 67.9073 177.123 68.3902V77.4562C177.123 80.0213 178.477 84.5959 180.944 84.5959V85.7175H167.658V84.5959C170.284 84.5959 171.556 80.0213 171.556 77.4562V37.9051C171.556 35.34 170.284 30.6876 167.658 30.6876V29.5608H189.297C197.412 29.5608 203.695 34.2132 203.695 42.2356C203.695 47.6098 198.205 56.193 192.793 59.5629C196.774 70.0725 204.488 84.6738 215.704 84.6738H215.709ZM177.123 65.6589C185.795 61.7282 197.412 52.3402 197.412 42.1526C197.412 37.6611 194.153 32.4478 186.99 32.4478H181.737C179.27 32.4478 177.123 34.6961 177.123 37.2612V65.6589Z" fill="url(#paint3_linear_1_26)"/>
<path d="M240.211 29.5608C254.769 29.5608 263.282 39.5096 263.282 49.4532C263.282 71.516 242.832 85.7123 223.181 85.7123H220.874V84.5907C223.501 84.5907 224.773 82.6643 224.773 80.1771V37.4222C224.773 34.935 223.501 30.6824 220.874 30.6824V29.5608H240.206H240.211ZM256.917 49.7751C256.917 40.3092 250.948 32.4478 239.81 32.4478H234.16C231.694 32.4478 230.339 33.8134 230.339 36.3006V79.3774C230.339 81.7037 231.611 81.9425 232.883 81.4648C242.194 78.2559 256.912 68.9509 256.912 49.7751H256.917Z" fill="url(#paint4_linear_1_26)"/>
<path d="M304 70.9552C304 79.2996 296.682 87 283.633 87C275.198 87 267.484 80.1823 267.484 73.9253C267.484 66.7078 273.21 64.9423 273.21 64.9423C270.105 71.3603 273.21 84.4349 285.461 84.4349C293.495 84.4349 298.351 78.4168 298.351 73.5255C298.351 60.8507 270.666 58.6854 270.666 42.2408C270.666 33.6577 276.712 29.0052 286.182 29.0052C299.309 29.0052 305.117 38.2322 300.9 42.8847C299.309 44.6501 296.765 42.8847 296.765 42.8847C296.765 41.0414 294.458 31.2535 286.182 31.2535C280.77 31.2535 275.522 34.5404 275.522 40.7973C275.522 52.4285 304.005 58.8464 304.005 70.9604L304 70.9552Z" fill="url(#paint5_linear_1_26)"/>
</g>
<path d="M9.5 29L10.0382 32.2675C10.5196 35.1899 12.8101 37.4804 15.7325 37.9618L19 38.5L15.7325 39.0382C12.8101 39.5196 10.5196 41.8101 10.0382 44.7325L9.5 48L8.9618 44.7325C8.48043 41.8101 6.1899 39.5196 3.26747 39.0382L0 38.5L3.26747 37.9618C6.1899 37.4804 8.48043 35.1899 8.9618 32.2675L9.5 29Z" fill="#0A364C"/>
<path d="M376.5 11L377.038 14.2675C377.52 17.1899 379.81 19.4804 382.733 19.9618L386 20.5L382.733 21.0382C379.81 21.5196 377.52 23.8101 377.038 26.7325L376.5 30L375.962 26.7325C375.48 23.8101 373.19 21.5196 370.267 21.0382L367 20.5L370.267 19.9618C373.19 19.4804 375.48 17.1899 375.962 14.2675L376.5 11Z" fill="#094159"/>
<path d="M294.5 0L294.755 1.54775C294.983 2.93206 296.068 4.01704 297.452 4.24506L299 4.5L297.452 4.75494C296.068 4.98296 294.983 6.06794 294.755 7.45225L294.5 9L294.245 7.45225C294.017 6.06794 292.932 4.98296 291.548 4.75494L290 4.5L291.548 4.24506C292.932 4.01704 294.017 2.93206 294.245 1.54775L294.5 0Z" fill="#094159"/>
<path d="M332.5 41L332.755 42.5478C332.983 43.9321 334.068 45.017 335.452 45.2451L337 45.5L335.452 45.7549C334.068 45.983 332.983 47.0679 332.755 48.4522L332.5 50L332.245 48.4522C332.017 47.0679 330.932 45.983 329.548 45.7549L328 45.5L329.548 45.2451C330.932 45.017 332.017 43.9321 332.245 42.5477L332.5 41Z" fill="#094159"/>
<path d="M435.5 30L435.755 31.5478C435.983 32.9321 437.068 34.017 438.452 34.2451L440 34.5L438.452 34.7549C437.068 34.983 435.983 36.0679 435.755 37.4522L435.5 39L435.245 37.4522C435.017 36.0679 433.932 34.983 432.548 34.7549L431 34.5L432.548 34.2451C433.932 34.017 435.017 32.9321 435.245 31.5477L435.5 30Z" fill="#094159"/>
<defs>
<linearGradient id="paint0_linear_1_26" x1="11.9824" y1="74.0976" x2="82.596" y2="73.0375" gradientUnits="userSpaceOnUse">
<stop stop-color="#0A293B"/>
<stop offset="1" stop-color="#07506C"/>
</linearGradient>
<linearGradient id="paint1_linear_1_26" x1="50.1392" y1="74.0976" x2="162.759" y2="71.4002" gradientUnits="userSpaceOnUse">
<stop stop-color="#0A293B"/>
<stop offset="1" stop-color="#07506C"/>
</linearGradient>
<linearGradient id="paint2_linear_1_26" x1="115.259" y1="74.0976" x2="185.872" y2="73.0375" gradientUnits="userSpaceOnUse">
<stop stop-color="#0A293B"/>
<stop offset="1" stop-color="#07506C"/>
</linearGradient>
<linearGradient id="paint3_linear_1_26" x1="168.642" y1="74.1594" x2="239.369" y2="73.0973" gradientUnits="userSpaceOnUse">
<stop stop-color="#0A293B"/>
<stop offset="1" stop-color="#07506C"/>
</linearGradient>
<linearGradient id="paint4_linear_1_26" x1="221.743" y1="74.0935" x2="284.166" y2="73.265" gradientUnits="userSpaceOnUse">
<stop stop-color="#0A293B"/>
<stop offset="1" stop-color="#07506C"/>
</linearGradient>
<linearGradient id="paint5_linear_1_26" x1="268.232" y1="74.9998" x2="321.993" y2="74.4048" gradientUnits="userSpaceOnUse">
<stop stop-color="#0A293B"/>
<stop offset="1" stop-color="#07506C"/>
</linearGradient>
<clipPath id="clip0_1_26">
<rect width="293" height="58" fill="white" transform="translate(11 29)"/>
</clipPath>
</defs>
</svg>
