<svg width="1000.00168px" height="224.983932px" viewBox="0 0 1000.00168 224.983932" version="1.1" xmlns="http://www.w3.org/2000/svg" xmlns:xlink="http://www.w3.org/1999/xlink">
    <g id="Page-1" stroke="none" stroke-width="1" fill="none" fill-rule="evenodd">
        <g id="oscars_logo" fill="#FFFFFF" fill-rule="nonzero">
            <path d="M99.2905472,29.7960003 C103.747547,28.8500003 116.948547,30.6450003 120.866547,31.4330003 C132.584547,33.7890003 144.185547,38.4540003 153.695547,44.8920003 C161.347547,50.0710003 166.175547,54.1960003 172.435547,61.0200003 C182.061547,71.5100003 189.184547,84.5010003 193.136547,98.3720003 C194.703547,103.865 196.338547,111.731 196.305547,118.337 C196.285547,121.952 196.631547,125.993 196.262547,129.372 C195.889547,132.742 195.488547,136.138 194.782547,139.622 C193.467547,146.084 191.788547,151.924 189.356547,157.353 C185.790547,165.324 179.738547,176.171 173.735547,182.474 C164.524547,192.144 157.438547,198.805 144.481547,205.381 C120.285547,217.662 93.3165472,218.298 68.4635472,208.053 C57.3805472,203.484 42.3905472,193.39 34.5515472,183.912 C33.5405472,182.687 32.7905472,181.936 31.8665472,180.742 C23.2595472,169.67 17.8965472,160.581 13.9175472,146.521 C13.0085472,143.322 12.3685472,140.497 11.7725472,136.929 C11.0375472,132.513 11.1665472,129.978 10.7105472,126.576 C9.18554716,115.206 13.4035472,97.7440003 17.7305472,87.4450003 C21.0575472,79.5350003 27.5465472,68.6530003 33.3915472,62.3460003 C48.9125472,45.6000003 65.9465472,34.7500003 89.0105472,30.9220003 L99.2905472,29.7960003 L99.2905472,29.7960003 Z M109.265547,224.939 C114.324547,224.939 125.640547,222.64 130.197547,221.423 C136.572547,219.726 142.650547,217.395 147.952547,214.728 C153.521547,211.926 158.149547,209.281 163.319547,205.63 C170.201547,200.78 173.884547,196.96 179.441547,191.444 C180.498547,190.396 181.361547,189.287 182.372547,188.176 C194.426547,174.891 202.474547,156.633 205.751547,138.861 L207.066547,128.119 C207.066547,119.941 207.368547,118.824 206.444547,110.812 C204.768547,96.2830003 199.566547,82.1220003 192.118547,70.0360003 C187.116547,61.9180003 182.431547,56.3710003 175.855547,49.7930003 C168.115547,42.0530003 157.702547,34.6680003 147.022547,29.7050003 C141.201547,27.0020003 135.511547,24.7810003 129.125547,23.1720003 C116.276547,19.939 105.910547,19.111 92.6035472,20.49 C81.5655472,21.633 69.2095472,25.0420003 59.6035472,29.8800003 C38.0375472,40.7400003 21.4625472,56.3950003 10.5255472,77.9310003 C5.69454716,87.4450003 0.964547159,102.313 0.373547159,113.446 C0.306547159,114.697 0.0515471593,115.041 0.0555471593,116.057 C0.0595471593,123.984 -0.276452841,126.605 0.658547159,134.366 C2.66654716,151.068 9.69854716,168.852 19.8235472,182.024 C25.3095472,189.161 30.4825472,195.146 37.5725472,200.794 C49.7415472,210.481 61.6185472,217.415 77.1485472,221.523 C90.0545472,224.934 96.2295472,224.939 109.265547,224.939 Z" id="Shape"></path>
            <path d="M768.769547,32.2760003 L800.386547,32.2760003 C804.616547,32.2760003 814.866547,34.0430003 818.855547,35.6490003 C824.639547,37.9810003 828.060547,40.2320003 832.087547,44.2560003 C844.179547,56.3410003 846.766547,78.9590003 839.619547,94.3300003 C834.725547,104.853 827.416547,110.883 816.277547,114.33 C812.774547,115.413 806.317547,116.632 802.355547,116.713 C800.729547,116.747 798.493547,117.029 797.450547,117.032 L768.768547,117.032 L768.768547,32.2760003 L768.769547,32.2760003 Z M805.930547,126.163 C809.949547,126.148 815.820547,124.527 819.038547,123.613 C830.176547,120.455 839.551547,113.606 845.578547,104.192 C853.975547,91.0620003 856.272547,71.2270003 850.138547,53.9070003 C847.409547,46.1960003 842.918547,40.3800003 837.634547,35.4450003 C832.297547,30.4530003 824.746547,26.8560003 817.546547,24.8900003 C804.816547,21.409 773.641547,22.4920003 758.655547,22.4920003 L758.655547,222.332 L768.768547,222.332 L768.722547,126.816 L794.192547,126.816 C795.192547,127.053 823.671547,172.738 824.899547,174.671 C830.985547,184.256 837.666547,195.311 843.837547,204.637 L851.435547,216.599 C856.177547,223.955 852.893547,222.331 866.365547,222.331 C866.033547,220.9 860.188547,212.21 858.906547,210.11 C852.000547,198.857 806.784547,128.344 805.930547,126.163 Z" id="Shape"></path>
            <path d="M363.869547,117.688 L364.959547,137.475 C365.469547,141.198 366.223547,144.643 367.035547,147.779 C368.720547,154.294 370.739547,159.897 373.441547,165.804 C378.448547,176.742 385.579547,186.502 393.619547,194.541 C411.358547,212.281 430.493547,221.045 455.381547,224.388 C456.248547,224.505 456.751547,224.585 458.090547,224.617 C459.507547,224.645 459.939547,224.938 461.021547,224.938 L472.431547,224.938 C473.570547,224.938 475.197547,224.67 476.680547,224.617 C483.772547,224.368 498.329547,221.052 504.703547,219.055 C509.357547,217.594 513.980547,215.734 518.325547,213.774 C520.221547,212.918 520.386547,211.381 521.704547,207.705 C522.287547,206.081 524.136547,202.104 524.269547,200.488 C518.878547,203.321 506.014547,208.134 500.528547,209.668 C493.337547,211.685 488.052547,212.952 480.435547,214.022 C472.825547,215.092 462.658547,215.27 455.379547,214.281 C432.535547,211.172 410.872547,200.51 396.293547,182.732 C393.067547,178.797 392.159547,177.746 389.008547,173.086 C368.216547,142.353 369.226547,98.6430003 390.826547,69.0090003 C406.664547,47.2790003 427.834547,34.2960003 454.697547,30.5220003 C455.920547,30.3490003 458.347547,30.0500003 459.712547,29.9900003 C460.669547,29.9480003 461.694547,30.0410003 462.654547,29.9890003 C464.505547,29.8860003 464.086547,29.6670003 467.217547,29.6670003 C469.644547,29.6670003 475.160547,30.1780003 477.453547,30.5210003 C494.699547,33.0970003 515.012547,40.5800003 529.117547,50.8890003 C530.199547,51.6770003 531.253547,52.4810003 532.418547,53.1390003 L529.836547,46.5810003 C528.910547,44.2210003 528.020547,42.2640003 527.064547,39.9050003 C526.586547,38.7360003 526.321547,37.6340003 525.446547,36.9520003 C524.060547,35.8700003 518.057547,32.8880003 516.334547,32.0540003 C497.090547,22.7310003 476.541547,17.903 454.149547,20.505 C433.562547,22.9010003 417.047547,30.6080003 401.570547,42.9060003 C394.856547,48.2430003 388.197547,55.3790003 383.353547,62.1910003 C377.853547,69.9190003 373.848547,77.2080003 370.256547,86.5780003 C368.519547,91.1080003 367.083547,96.0600003 366.091547,100.983 C365.553547,103.663 365.153547,106.204 364.751547,109.105 L363.869547,117.688 Z" id="Path"></path>
            <path d="M550.997547,222.22 C552.235547,222.22 552.566547,220.581 552.930547,219.687 L582.038547,153.604 C582.975547,151.353 583.832547,149.715 584.744547,147.53 L631.590547,41.1340003 C632.346547,39.3140003 639.008547,23.5640003 639.992547,22.8210003 L656.294547,60.3090003 C658.118547,64.1480003 660.129547,68.8010003 661.815547,72.7200003 C668.924547,89.2900003 676.554547,106.046 683.698547,122.56 L724.751547,215.811 C725.485547,217.356 726.970547,220.319 727.362547,222.011 L737.471547,222.011 C737.030547,220.099 718.521547,178.805 716.158547,173.237 C709.334547,157.151 701.634547,140.835 694.844547,124.777 L682.584547,96.9540003 C678.749547,88.3740003 674.326547,77.5880003 670.425547,69.3270003 C669.255547,66.8440003 668.441547,64.7800003 667.365547,62.2850003 L642.935547,6.844 C642.451547,5.718 641.928547,4.6 641.423547,3.449 C640.914547,2.268 640.224547,0.981 639.997547,1.42108547e-14 L639.341547,1.42108547e-14 C639.241547,1.211 628.084547,26.0790003 627.257547,28.0140003 C625.295547,32.5780003 623.037547,37.2650003 621.055547,42.0090003 L608.798547,69.8550003 C603.967547,81.1760003 598.152547,93.3260003 593.534547,104.468 L547.780547,208.362 C547.187547,209.686 541.829547,220.965 542.065547,222.15 L550.997547,222.22 Z" id="Path"></path>
            <path d="M902.099547,65.2000003 C902.099547,60.1370003 903.798547,54.4380003 905.562547,50.7220003 C914.046547,32.8480003 933.411547,26.9210003 951.844547,30.7820003 C961.195547,32.7390003 971.267547,38.0450003 978.591547,43.8020003 C980.020547,44.9250003 986.242547,50.1950003 987.515547,50.5310003 C986.625547,48.6730003 985.772547,45.9660003 985.016547,43.8850003 L981.281547,34.2670003 L979.033547,32.2870003 C973.820547,28.3310003 968.076547,25.2280003 961.560547,23.0170003 C952.429547,19.92 947.982547,19.884 938.938547,19.884 C926.793547,19.884 915.200547,25.1830003 906.593547,32.5290003 C903.206547,35.4170003 899.103547,40.9360003 896.891547,45.3230003 C895.650547,47.7800003 894.575547,50.4630003 893.775547,53.2820003 C891.320547,61.9540003 891.003547,72.3890003 894.254547,80.8700003 C896.602547,87.0050003 899.143547,90.8710003 903.312547,95.6230003 C908.828547,101.917 916.140547,106.847 923.416547,111.041 C926.081547,112.576 928.562547,113.803 931.111547,115.078 C943.392547,121.218 958.424547,128.042 969.427547,136.102 C978.051547,142.422 986.743547,151.214 988.887547,163.913 C991.249547,177.926 984.393547,192.041 977.485547,198.941 C968.732547,207.689 958.880547,212.887 945.815547,214.545 C921.640547,217.615 902.258547,206.535 890.265547,188.522 C889.212547,186.94 886.463547,182.293 885.471547,181.578 C881.502547,192.769 880.261547,191.019 882.824547,195.006 C883.643547,196.274 884.516547,197.476 885.360547,198.661 C889.477547,204.461 895.851547,210.444 901.708547,214.239 C905.611547,216.769 909.806547,218.92 914.274547,220.597 C919.907547,222.711 923.745547,223.594 929.741547,224.371 C937.619547,225.39 937.526547,224.895 944.474547,224.609 L953.500547,223.208 C970.510547,219.461 985.702547,209.557 993.934547,194.188 C999.903547,183.038 1002.03255,168.554 997.747547,156.022 C983.034547,112.977 918.934547,111.871 904.560547,79.3740003 C902.160547,73.9560003 902.099547,70.7740003 902.099547,65.2000003 Z" id="Path"></path>
            <path d="M339.099547,168.216 C339.099547,166.275 338.360547,162.339 337.986547,160.524 C334.967547,145.975 324.446547,134.556 312.693547,126.488 C303.869547,120.432 299.729547,118.835 290.806547,114.134 C268.888547,102.594 238.514547,92.8920003 241.340547,62.3080003 C242.576547,48.9520003 251.694547,37.7580003 262.949547,33.0640003 C270.250547,30.0200003 274.532547,29.6690003 282.045547,29.6690003 C304.516547,29.6670003 323.972547,49.6470003 326.384547,50.5330003 L321.588547,37.3950003 C320.197547,33.8520003 320.880547,34.4630003 317.958547,32.2260003 C312.541547,28.0830003 307.060547,25.2270003 300.428547,23.0200003 C298.116547,22.2540003 296.106547,21.616 293.540547,21.105 C283.673547,19.146 275.999547,19.286 266.161547,21.616 C249.685547,25.5180003 236.827547,38.2360003 232.369547,54.9720003 C230.282547,62.7970003 230.295547,71.5410003 232.772547,79.2630003 C238.326547,96.5620003 254.504547,107.646 270.250547,115.156 C286.801547,123.049 311.458547,134.284 321.706547,149.109 C330.692547,162.109 330.218547,176.539 322.917547,190.166 C315.339547,204.318 298.768547,213.622 283.006547,214.817 C274.603547,215.451 267.029547,214.804 258.998547,212.142 C252.115547,209.855 243.975547,205.022 238.933547,199.918 C235.209547,196.151 226.014547,185.387 224.998547,181.58 L224.343547,181.58 C224.211547,183.141 221.622547,189.054 220.891547,190.855 C220.074547,192.872 221.119547,193.761 222.065547,195.266 C232.459547,211.755 248.913547,221.464 268.311547,224.334 C273.581547,225.109 274.738547,224.938 279.766547,224.938 C280.882547,224.938 281.628547,224.643 283.021547,224.617 C288.716547,224.507 298.075547,222.045 302.951547,220.084 C315.741547,214.939 326.341547,206.322 332.917547,194.302 C334.627547,191.177 335.956547,188.212 337.051547,184.448 C338.776547,178.532 339.099547,174.151 339.099547,168.216 Z" id="Path"></path>
            <path d="M643.259547,118.012 C643.259547,117.764 648.079547,105.295 639.669547,105.295 C631.258547,105.3 636.080547,117.99 636.080547,118.012 C636.077547,123.535 626.298547,120.985 626.298547,128.119 C626.298547,134.57 626.293547,133.824 628.083547,141.017 C628.826547,144.01 629.287547,146.434 632.493547,146.703 C632.493547,148.902 631.515547,151.269 631.515547,153.547 C631.515547,158.024 631.327547,160.286 632.367547,164.761 C632.669547,166.085 633.796547,169.733 633.796547,170.823 C633.796547,173.31 633.472547,173.953 633.472547,174.412 L633.472547,180.605 C633.472547,183.914 635.427547,188.397 635.427547,197.231 C635.427547,204.448 626.233547,198.248 623.692547,205.014 L614.892547,205.053 L614.300547,206.079 C614.090547,206.517 614.012547,206.757 613.808547,207.227 C612.788547,209.589 607.706547,220.774 607.836547,222.175 C627.686547,222.636 651.098547,222.107 671.503547,222.219 C671.586547,220.844 668.901547,215.168 668.138547,213.42 C667.455547,211.869 665.013547,205.274 664.117547,205.052 L655.969547,205.052 C653.545547,202.628 654.733547,201.667 649.781547,201.455 C646.691547,201.325 643.907547,200.779 643.907547,197.554 C643.907547,190.847 643.723547,193.651 644.867547,186.789 C646.128547,179.233 645.862547,182.741 645.862547,175.061 C645.862547,174.156 645.538547,173.88 645.538547,173.105 C645.538547,167.344 647.818547,163.489 647.818547,159.739 C647.818547,156.45 647.890547,149.891 646.642547,147.153 C647.678547,146.265 649.110547,146.202 649.954547,144.915 C650.590547,143.952 650.961547,141.965 651.278547,140.702 C652.921547,134.121 653.038547,134.257 653.038547,128.118 C653.034547,121.021 643.251547,123.599 643.259547,118.012 Z" id="Path"></path>
        </g>
    </g>
</svg>
